<?xml version="1.0" encoding="utf-8"?>
<!-- Generator: Adobe Illustrator 22.0.0, SVG Export Plug-In . SVG Version: 6.00 Build 0)  -->
<svg version="1.1" id="图层_1" xmlns="http://www.w3.org/2000/svg" xmlns:xlink="http://www.w3.org/1999/xlink" x="0px" y="0px"
	 viewBox="0 0 1080 1920" style="enable-background:new 0 0 1080 1920;" xml:space="preserve">
<style type="text/css">
	.st0{fill:#1E154C;stroke:#000000;stroke-miterlimit:10;}
	.st1{fill:#FFFFFF;stroke:#000000;stroke-miterlimit:10;}
	.st2{fill:#EBEBEB;stroke:#000000;stroke-miterlimit:10;}
</style>
<rect x="-1.5" y="0.5" class="st0" width="1080" height="1920"/>
<circle class="st1" cx="74.5" cy="1004.5" r="11"/>
<circle class="st1" cx="942.5" cy="114.5" r="11"/>
<circle class="st1" cx="948.5" cy="1574.5" r="11"/>
<circle class="st1" cx="154.5" cy="20.5" r="11"/>
<circle class="st1" cx="154.5" cy="1692.5" r="11"/>
<circle class="st1" cx="71.5" cy="1177.5" r="6"/>
<circle class="st1" cx="265.5" cy="49.5" r="6"/>
<circle class="st1" cx="1061.5" cy="1253.5" r="6"/>
<circle class="st1" cx="33.5" cy="1619.5" r="6"/>
<circle class="st1" cx="467.5" cy="1915.5" r="6"/>
<circle class="st1" cx="771.5" cy="1807.5" r="6"/>
<circle class="st1" cx="1047.5" cy="417.5" r="6"/>
<circle class="st1" cx="27.5" cy="529.5" r="6"/>
<circle class="st1" cx="939.5" cy="955.5" r="6"/>
<circle class="st1" cx="7.5" cy="1911.5" r="6"/>
<circle class="st2" cx="692.5" cy="18.5" r="9"/>
<ellipse class="st2" cx="164.5" cy="1863.5" rx="1" ry="2"/>
<ellipse class="st2" cx="1060.5" cy="1775.5" rx="1" ry="2"/>
<ellipse class="st2" cx="20.5" cy="155.5" rx="1" ry="2"/>
<ellipse class="st2" cx="220.5" cy="743.5" rx="1" ry="2"/>
<circle class="st2" cx="591" cy="931" r="3.5"/>
<circle class="st2" cx="143" cy="1835" r="3.5"/>
<circle class="st2" cx="173" cy="695" r="3.5"/>
<circle class="st2" cx="115" cy="159" r="3.5"/>
<circle class="st2" cx="55" cy="45" r="3.5"/>
<circle class="st2" cx="939" cy="25" r="3.5"/>
<circle class="st2" cx="503" cy="139" r="3.5"/>
<circle class="st2" cx="203" cy="385" r="3.5"/>
<circle class="st2" cx="784.5" cy="464.5" r="5"/>
<circle class="st2" cx="956.5" cy="1810.5" r="5"/>
<circle class="st2" cx="166.5" cy="1350.5" r="5"/>
<circle class="st2" cx="198.5" cy="894.5" r="5"/>
<circle class="st2" cx="1034.5" cy="760.5" r="5"/>
<circle class="st2" cx="289.5" cy="1851.5" r="8"/>
<circle class="st2" cx="925.5" cy="317.5" r="8"/>
<circle class="st2" cx="49.5" cy="788.5" r="4"/>
<circle class="st2" cx="906.5" cy="1909.5" r="8"/>
</svg>
